<svg xmlns="http://www.w3.org/2000/svg" width="32" height="32" focusable="false" viewBox="0 0 32 32">
<path d="M14.192.161C10.37.161 9.9.183 8.4.251A10.342 10.342 0 0 0 4.984.9 6.782 6.782 0 0 0 2.5 2.522 6.621 6.621 0 0 0 .881 5.006a10.261 10.261 0 0 0-.652 3.407c-.079 1.506-.09 1.979-.09 5.8S.162 18.509.229 20a10.2 10.2 0 0 0 .652 3.41A6.924 6.924 0 0 0 2.5 25.895a6.77 6.77 0 0 0 2.485 1.619 10.266 10.266 0 0 0 3.406.652c1.507.09 1.979.1 5.8.1s4.295-.022 5.79-.09a10.214 10.214 0 0 0 3.407-.651 6.926 6.926 0 0 0 2.485-1.62 6.767 6.767 0 0 0 1.619-2.485 10.281 10.281 0 0 0 .652-3.406c.09-1.506.1-1.979.1-5.8s-.023-4.295-.09-5.79a10.222 10.222 0 0 0-.654-3.406 6.717 6.717 0 0 0-1.619-2.5A6.782 6.782 0 0 0 23.4.9a10.268 10.268 0 0 0-3.406-.649c-1.507-.079-1.979-.09-5.802-.09zm0 2.529c3.755 0 4.194.022 5.678.09a7.929 7.929 0 0 1 2.608.483A4.577 4.577 0 0 1 24.1 4.309a4.107 4.107 0 0 1 1.045 1.619 7.636 7.636 0 0 1 .484 2.608c.067 1.484.079 1.922.079 5.677s-.023 4.193-.091 5.677a7.822 7.822 0 0 1-.497 2.61 4.439 4.439 0 0 1-1.056 1.619 4.278 4.278 0 0 1-1.619 1.046 7.723 7.723 0 0 1-2.619.483c-1.5.068-1.934.079-5.689.079s-4.193-.022-5.688-.09a7.934 7.934 0 0 1-2.62-.495 4.35 4.35 0 0 1-1.619-1.057 4.3 4.3 0 0 1-1.056-1.619 7.907 7.907 0 0 1-.495-2.619c-.057-1.473-.068-1.934-.068-5.677s.023-4.193.068-5.689a8.728 8.728 0 0 1 .517-2.6 4.22 4.22 0 0 1 1.055-1.617A4.138 4.138 0 0 1 5.85 3.207a7.759 7.759 0 0 1 2.6-.495c1.5-.056 1.933-.067 5.688-.067zm0 4.306a7.217 7.217 0 1 0 7.218 7.217A7.211 7.211 0 0 0 14.192 7zm0 11.905a4.688 4.688 0 1 1 4.689-4.688 4.693 4.693 0 0 1-4.689 4.687zm9.185-12.186a1.686 1.686 0 1 1-1.686-1.687 1.684 1.684 0 0 1 1.686 1.687z" transform="translate(1.861 1.518)"></path>
</svg>