<svg xmlns="http://www.w3.org/2000/svg" width="32" height="32" focusable="false" viewBox="0 0 32 32">
<path d="M28.458 3.229a11.839 11.839 0 0 1-3.339.92A5.831 5.831 0 0 0 27.674.924a11.842 11.842 0 0 1-3.7 1.4A5.817 5.817 0 0 0 13.91 6.295a6.277 6.277 0 0 0 .148 1.329A16.417 16.417 0 0 1 2.066 1.571 5.628 5.628 0 0 0 1.272 4.5a5.839 5.839 0 0 0 2.589 4.85 5.9 5.9 0 0 1-2.634-.738v.068a5.824 5.824 0 0 0 4.667 5.712 5.688 5.688 0 0 1-1.533.2 5.591 5.591 0 0 1-1.079-.1 5.834 5.834 0 0 0 5.44 4.043A11.707 11.707 0 0 1 1.5 21.024a11.414 11.414 0 0 1-1.386-.079 16.583 16.583 0 0 0 8.936 2.611c10.709 0 16.557-8.869 16.557-16.545 0-.25 0-.5-.023-.749a11.819 11.819 0 0 0 2.908-3.009z" transform="translate(1.887 3.519)"></path>
</svg>