<svg id="Layer_1" data-name="Layer 1" xmlns="http://www.w3.org/2000/svg" viewBox="0 0 227.83 125.3"><defs><style>.cls-1{fill:#010101;}</style></defs><path class="cls-1" d="M43.05,39.07h53.7c35.62,0,57.21,23.34,57.21,62,0,40-22.11,63.35-56.51,63.35H43.05ZM95,141.21c19.83,0,31.42-13.69,31.42-37.73,0-27.55-11.59-41.24-36.16-41.24H70.6v79Z" transform="translate(-43.05 -39.07)"></path><path class="cls-1" d="M165.73,44.36H220c25.55,0,41.35,15,41.35,38.49,0,23.7-15.8,38.49-41.18,38.49H192.12v43H165.73Zm47.4,56.48c15.3,0,22.69-5.21,22.69-18,0-12.27-7.06-18-22.52-18H192.12v36Z" transform="translate(-43.05 -39.07)"></path><path class="cls-1" d="M243.33,137.35h27.55v27H243.33Z" transform="translate(-43.05 -39.07)"></path></svg>