<svg role="img" class="i-icon i-icon-user" xmlns="http://www.w3.org/2000/svg" width="24" height="24" viewBox="0 0 24 24" focusable="false">
<g fill="currentColor">
<path d="M12 14a5.266 5.266 0 0 0 5-5.5A5.266 5.266 0 0 0 12 3a5.266 5.266 0 0 0-5 5.5 5.266 5.266 0 0 0 5 5.5zm0-10a4.269 4.269 0 0 1 4 4.5 4.269 4.269 0 0 1-4 4.5 4.269 4.269 0 0 1-4-4.5A4.269 4.269 0 0 1 12 4z" transform="translate(12 12) translate(-12 -12)"></path>
<path d="M16 16H8a4.951 4.951 0 0 0-5 5h1a4.012 4.012 0 0 1 4-4h8a4.012 4.012 0 0 1 4 4h1a5.015 5.015 0 0 0-5-5z" transform="translate(12 12) translate(-12 -12)"></path>
</g>
</svg>