<svg xmlns="http://www.w3.org/2000/svg" width="129.898" height="38.488"><defs><linearGradient id="a" x1="31.8" y1="183.29" x2="15.02" y2="166.51" gradientTransform="matrix(.9622 0 0 -.9622 -9.622 184.744)" gradientUnits="userSpaceOnUse"><stop offset="0" stop-color="#00a0ff"></stop><stop offset=".01" stop-color="#00a1ff"></stop><stop offset=".26" stop-color="#00beff"></stop><stop offset=".51" stop-color="#00d2ff"></stop><stop offset=".76" stop-color="#00dfff"></stop><stop offset="1" stop-color="#00e3ff"></stop></linearGradient><linearGradient id="b" x1="43.83" y1="172" x2="19.64" y2="172" gradientTransform="matrix(.9622 0 0 -.9622 -9.622 184.744)" gradientUnits="userSpaceOnUse"><stop offset="0" stop-color="#ffe000"></stop><stop offset=".41" stop-color="#ffbd00"></stop><stop offset=".78" stop-color="orange"></stop><stop offset="1" stop-color="#ff9c00"></stop></linearGradient><linearGradient id="c" x1="34.83" y1="169.7" x2="12.07" y2="146.95" gradientTransform="matrix(.9622 0 0 -.9622 -9.622 184.744)" gradientUnits="userSpaceOnUse"><stop offset="0" stop-color="#ff3a44"></stop><stop offset="1" stop-color="#c31162"></stop></linearGradient><linearGradient id="d" x1="17.3" y1="191.82" x2="27.46" y2="181.66" gradientTransform="matrix(.9622 0 0 -.9622 -9.622 184.744)" gradientUnits="userSpaceOnUse"><stop offset="0" stop-color="#32a071"></stop><stop offset=".07" stop-color="#2da771"></stop><stop offset=".48" stop-color="#15cf74"></stop><stop offset=".8" stop-color="#06e775"></stop><stop offset="1" stop-color="#00f076"></stop></linearGradient></defs><path d="M-10-10h155v60H-10z" fill="none"></path><rect width="129.898" height="38.488" rx="4.811" ry="4.811"></rect><path d="M125.087.77a4.041 4.041 0 014.041 4.041v28.866a4.041 4.041 0 01-4.041 4.041H4.81a4.041 4.041 0 01-4.041-4.04V4.81A4.041 4.041 0 014.81.77h120.276m0-.77H4.81A4.811 4.811 0 000 4.811v28.866a4.811 4.811 0 004.811 4.811h120.276a4.811 4.811 0 004.81-4.81V4.81A4.811 4.811 0 00125.088 0z" fill="#a6a6a6"></path><path d="M45.628 9.853a2.608 2.608 0 01-.722 1.924 2.8 2.8 0 01-2.117.857 3.031 3.031 0 01-2.126-5.167 2.887 2.887 0 012.126-.866 2.983 2.983 0 011.184.24 2.377 2.377 0 01.904.645l-.51.51a1.924 1.924 0 00-1.578-.683 2.232 2.232 0 00-2.242 2.31 2.27 2.27 0 003.85 1.664 1.819 1.819 0 00.48-1.174H42.79V9.42h2.8a2.444 2.444 0 01.039.433zm4.407-2.406h-2.598v1.829h2.367v.692h-2.367v1.829h2.598v.712h-3.368V6.735h3.368zm3.156 5.062h-.741V7.447h-1.617v-.712h4.013v.712H53.19zm4.484 0V6.735h.74v5.774zm4.031 0h-.74V7.447h-1.617v-.712h3.964v.712h-1.607zm9.122-.75a3.002 3.002 0 01-4.234 0 3.118 3.118 0 010-4.283 2.983 2.983 0 014.234 0 3.108 3.108 0 010 4.282zm-3.685-.482a2.223 2.223 0 003.137 0 2.463 2.463 0 000-3.31 2.223 2.223 0 00-3.137 0 2.463 2.463 0 000 3.31zm5.58 1.232V6.735h.905l2.81 4.494V6.735h.74v5.774h-.77l-2.934-4.706v4.706z" stroke-miterlimit="10" fill="#fff" stroke="#fff" stroke-width=".192"></path><path d="M65.565 20.928a4.09 4.09 0 104.108 4.09 4.032 4.032 0 00-4.108-4.09zm0 6.572a2.482 2.482 0 112.309-2.483 2.367 2.367 0 01-2.31 2.483zm-8.958-6.572a4.09 4.09 0 104.099 4.09 4.032 4.032 0 00-4.109-4.09zm0 6.572a2.482 2.482 0 112.3-2.483 2.367 2.367 0 01-2.31 2.483zm-10.671-5.312v1.732h4.156a3.628 3.628 0 01-.962 2.185 4.253 4.253 0 01-3.204 1.27 4.619 4.619 0 010-9.237 4.426 4.426 0 013.147 1.24l1.222-1.221a6.052 6.052 0 00-4.36-1.8 6.36 6.36 0 100 12.711 5.773 5.773 0 004.437-1.78 5.773 5.773 0 001.5-4.06 5.648 5.648 0 00-.096-1.088zm43.597 1.348a3.849 3.849 0 00-3.502-2.608 3.849 3.849 0 00-3.849 4.09 4.003 4.003 0 004.06 4.089 4.07 4.07 0 003.407-1.81l-1.395-.961a2.338 2.338 0 01-2.011 1.135 2.078 2.078 0 01-1.983-1.241l5.475-2.261zm-5.58 1.366a2.242 2.242 0 012.136-2.386 1.588 1.588 0 011.52.866zm-4.446 3.964h1.8V16.84h-1.8zm-2.944-7.024h-.068a2.887 2.887 0 00-2.155-.962 4.099 4.099 0 000 8.188 2.79 2.79 0 002.155-.962h.058v.587c0 1.568-.837 2.406-2.184 2.406a2.261 2.261 0 01-2.06-1.453l-1.568.654a3.897 3.897 0 003.628 2.415c2.107 0 3.849-1.241 3.849-4.263V21.17h-1.655zm-2.06 5.658a2.492 2.492 0 010-4.965 2.31 2.31 0 012.185 2.482 2.29 2.29 0 01-2.194 2.483zm23.46-10.661H93.66v12.027h1.8v-4.56h2.51a3.743 3.743 0 100-7.467zm0 5.773H95.45v-4.1H98a2.064 2.064 0 110 4.129zm11.093-1.732a3.368 3.368 0 00-3.204 1.838l1.598.664a1.703 1.703 0 011.635-.886 1.732 1.732 0 011.925 1.55v.125a3.974 3.974 0 00-1.877-.462c-1.722 0-3.463.962-3.463 2.704a2.78 2.78 0 002.982 2.646 2.53 2.53 0 002.31-1.155h.057v.962h1.732v-4.628c0-2.107-1.597-3.33-3.646-3.33zm-.22 6.591c-.588 0-1.406-.298-1.406-1.02 0-.962 1.02-1.28 1.925-1.28a3.195 3.195 0 011.635.404 2.175 2.175 0 01-2.107 1.925zm10.227-6.302l-2.059 5.215h-.057l-2.137-5.215h-1.924l3.204 7.293-1.828 4.051h1.876l4.927-11.344zm-16.174 7.697h1.8V16.84h-1.8z" fill="#fff"></path><path d="M10.045 7.255a1.924 1.924 0 00-.442 1.347v21.284a1.924 1.924 0 00.442 1.347l.068.068 11.922-11.913v-.279L10.113 7.188z" fill="url(#a)"></path><path d="M25.98 23.362l-3.945-3.974v-.279l3.945-3.983.086.048 4.725 2.685c1.347.76 1.347 2.01 0 2.78l-4.706 2.675z" fill="url(#b)"></path><path d="M26.095 23.305l-4.06-4.06-11.99 11.988a1.568 1.568 0 002.002.058l14.058-7.986" fill="url(#c)"></path><path d="M26.095 15.184L12.037 7.197a1.568 1.568 0 00-2.001.058l11.999 11.99z" fill="url(#d)"></path><path d="M25.98 23.218l-13.943 7.938a1.607 1.607 0 01-1.924 0l-.068.068.068.067a1.597 1.597 0 001.924 0l14.058-7.986z" style="isolation:isolate" opacity=".2"></path><path d="M10.045 31.099a1.924 1.924 0 01-.442-1.348v.145a1.924 1.924 0 00.442 1.347l.068-.068zm20.746-10.604l-4.811 2.723.086.087 4.725-2.675a1.684 1.684 0 00.962-1.386 1.79 1.79 0 01-.962 1.251z" style="isolation:isolate" opacity=".12"></path><path d="M12.037 7.332l18.754 10.661a1.79 1.79 0 01.962 1.251 1.684 1.684 0 00-.962-1.385L12.037 7.197c-1.347-.76-2.444-.125-2.444 1.415v.144c.03-1.55 1.107-2.184 2.444-1.424z" style="isolation:isolate" opacity=".25" fill="#fff"></path></svg>