<svg height="0" width="0" style="position:absolute" viewBox="0 0 0 0" xmlns="http://www.w3.org/2000/svg">
<symbol id="close">
<path fill="currentColor" d="m0.515,0.515c0.39,-0.39 1.023,-0.39 1.414,0l7.071,7.07l7.071,-7.07c0.39,-0.39 1.024,-0.39 1.414,0c0.39,0.39 0.39,1.023 0,1.414l-7.07,7.071l7.07,7.071c0.39,0.39 0.39,1.024 0,1.414c-0.39,0.39 -1.023,0.39 -1.414,0l-7.071,-7.07l-7.071,7.07c-0.39,0.39 -1.024,0.39 -1.414,0c-0.39,-0.39 -0.39,-1.023 0,-1.414l7.07,-7.071l-7.07,-7.071c-0.39,-0.39 -0.39,-1.024 0,-1.414z"></path>
</symbol>
<symbol id="arrow-back">
<path fill="currentColor" d="m7.828828,0.721626c0.39,-0.39 1.024,-0.39 1.414,0c0.39,0.39 0.39,1.024 0,1.414l-6.364,6.364l6.364,6.364c0.39,0.39 0.39,1.024 0,1.414c-0.39,0.391 -1.023,0.391 -1.414,0l-7.07,-7.07c-0.364,-0.363 -0.39,-0.935 -0.079,-1.328l0.078,-0.087l7.071,-7.07l0,-0.001z"></path>
</symbol>
<symbol id="arrow-forward" viewBox="0 0 24 24">
<path fill="currentColor" d="M11.568 11.001l-9.035 8.614a1.525 1.525 0 0 1-2.081 0 1.357 1.357 0 0 1 0-1.984l7.994-7.621L.452 2.388a1.357 1.357 0 0 1 0-1.983 1.523 1.523 0 0 1 2.081 0l9.035 8.613c.287.274.431.632.431.992 0 .358-.144.718-.431.991z"></path>
</symbol>
<symbol id="arrow-down" viewBox="0 0 10 6">
<path fill="currentColor" d="M5 6c-.256 0-.512-.098-.707-.293l-4-4c-.39-.39-.39-1.023 0-1.414.391-.39 1.023-.39 1.414 0l3.305 3.305L8.305.418c.4-.383 1.03-.372 1.414.025.384.397.373 1.031-.024 1.414l-4 3.862C5.5 5.907 5.25 6 5 6"></path>
</symbol>
</svg>